# xmcd
#
# Track frame offsets: 
#        150
#        10997
#        21804
#        36086
#        46237
#        58427
#        68661
#        78453
#        91887
#        106607
#        119374
#        128224
#        142110
#        156254
#        172774
#        185838
#        197939
#        212773
#        227338
#        239707
#        257190
#        272118
#        286051
#        300694
#
# Disc length: 4189 seconds
#
# Revision: 2
# Processed by: cddbd v1.5.2PL0 Copyright (c) Steve Scherf et al.
# Submitted via: ExactAudioCopy v1.1
#
DISCID=59105b18
DTITLE=Maddox Brothers and Rose - 6 Classic Albums Plus_CD3
DYEAR=2013
DGENRE=Country
TTITLE0=honky tonkin'
TTITLE1=why don't you haul off and love me
TTITLE2=philadelphia lawyer
TTITLE3=move it on over
TTITLE4=on the banks of the old pontchartrain
TTITLE5=whoa sailor
TTITLE6=sally let your bangs hang down
TTITLE7=at the first fall of snow
TTITLE8=live and let live
TTITLE9=tramp on the street
TTITLE10=chocolate ice cream cone
TTITLE11=gathering flowers for the master's bouquet
TTITLE12=that glory bound train
TTITLE13=this world is not my home
TTITLE14=drifting too far from the shore
TTITLE15=great speckled bird
TTITLE16=an empty mansion
TTITLE17=kneel at the cross
TTITLE18=smoke fire and brimstone
TTITLE19=when i take my vacation in heaven
TTITLE20=wait a little longer please jesus
TTITLE21=how beautiful heaven must be
TTITLE22=i'll reap my harvest in heaven
TTITLE23=will be circle be unbroken
EXTD=
EXTT0=
EXTT1=
EXTT2=
EXTT3=
EXTT4=
EXTT5=
EXTT6=
EXTT7=
EXTT8=
EXTT9=
EXTT10=
EXTT11=
EXTT12=
EXTT13=
EXTT14=
EXTT15=
EXTT16=
EXTT17=
EXTT18=
EXTT19=
EXTT20=
EXTT21=
EXTT22=
EXTT23=
PLAYORDER=
